# xmcd
#
# Track frame offsets:
#        150
#        16590
#        23399
#        28420
#        34789
#        51288
#        59869
#        75475
#        90664
#
# Disc length: 1453 seconds
#
# Revision: 0
# Processed by: cddbd v1.5.1PL0 Copyright (c) Steve Scherf et al.
# Submitted via: ExactAudioCopy v0.95a5
#
DISCID=6605ab09
DTITLE=Jack The Ripper - Fight The System For Peace And FreeDom
DYEAR=2004
DGENRE=Punk
TTITLE0=Fight The System For Peace And FreeDom
TTITLE1=Against The War
TTITLE2=State Homicide
TTITLE3=Fuckin' System Smash State Power
TTITLE4=Lost Children
TTITLE5=Violent Attack
TTITLE6=Decontrol
TTITLE7=Doom
TTITLE8=Human Meaning
EXTD=
EXTT0=
EXTT1=
EXTT2=
EXTT3=
EXTT4=
EXTT5=
EXTT6=
EXTT7=
EXTT8=
PLAYORDER=
